<?xml version="1.0" encoding="utf-8"?>
<!-- Generator: Adobe Illustrator 23.0.1, SVG Export Plug-In . SVG Version: 6.00 Build 0)  -->
<svg version="1.1" id="Capa_1" xmlns="http://www.w3.org/2000/svg" xmlns:xlink="http://www.w3.org/1999/xlink" x="0px" y="0px"
	 viewBox="0 0 512 512" style="enable-background:new 0 0 512 512;" xml:space="preserve">
<style type="text/css">
	.st0{fill:#FFFFFF;}
</style>
<path class="st0" d="M196.4,145.4c40.1,0,72.7-32.6,72.7-72.7c0-40.1-32.6-72.7-72.7-72.7c-40.1,0-72.7,32.6-72.7,72.7
	C123.7,112.8,156.3,145.4,196.4,145.4z"/>
<path class="st0" d="M388.3,198.3c0-0.7,0.1-1.3,0.1-2c0-40.1-32.6-72.7-72.7-72.7c-40.1,0-72.7,32.6-72.7,72.7c0,0.7,0,1.3,0.1,2
	H388.3z"/>
<polygon class="st0" points="81,270 81,305.8 205,406.4 205,512 307,512 307,406.4 431,305.8 431,270 "/>
<path class="st0" d="M431,260v-6.8c0-13.7-11.1-24.8-24.8-24.8H94.3c-7.4,0-13.3,6-13.3,13.3V260H431z"/>
</svg>
