<svg xmlns="http://www.w3.org/2000/svg" width="328.942" height="249.004" viewBox="0 0 328.942 249.004">
  <g id="Grupo_39" data-name="Grupo 39" transform="translate(-143.855 -310.113)">
    <path id="Trazado_46" data-name="Trazado 46" d="M221.4,340.221,238.3,320.613l1.337,24.3,18.715-3.11-5.939,15.3,13.708,8.689-12.638,8.475,11.578,8.557-11,5.014,3.816,7.362-11.442.713s1.731,6.519,6.743,6.118a9.96,9.96,0,0,0,7.4-4.526s5.012-.4,6.387.4,5.368,5.321,5.68,11.752l12.733,12.9s2.081-10.556,4.3-11.843c0,0-2.618-3.724.353-5.677s8.648-1.6,8.648-1.6l28.342,2.476s1.952,2.971-8.071,3.772a153.456,153.456,0,0,1-19.249.227s-.133,2.129,1.287,2.218,8.383,2.658,6.166,3.945-7.718-1.905-7.718-1.905l-4.873,21.069s9.1,14.1,12.026,24.257S321,516,321,516l-57.091-4.744s5.785-42.649-10.764-62.913-21.519-31.972-21.519-31.972l-11.743,39.875s-4.567,4.7-9.225-.574-17.221-43.815-17.221-43.815,1.6-2.75,3.016-2.662.22-3.548.22-3.548-7.317,3.107-8.736,3.018-8.472-1.239-8.472-1.239.133-2.129,3.769-3.327l-.577-2.174s-19.072-2.611-17.432-6.071l35.527,1.5L214.6,438.108l8.775-26.525s-9.759-3.457-12.909-10.064l-4.346,1.154.974-4.214-1.331-1.507-2.838-.177,3.1-4.081s-2.529-5.144-1.82-5.1l-7.717-1.9,6.118-6.743s1.817-6.3-9.361-9.844l9.711-7.232-9.8-14.145,14.193.883s-5.993-18.183-1.558-20.756Z" fill="none" stroke="#81fc12" stroke-linecap="round" stroke-linejoin="round" stroke-width="21"/>
    <path id="Trazado_47" data-name="Trazado 47" d="M221.4,340.221,238.3,320.613l1.337,24.3,18.715-3.11-5.939,15.3,13.708,8.689-12.638,8.475,11.578,8.557-11,5.014,3.816,7.362-11.442.713s1.731,6.519,6.743,6.118a9.96,9.96,0,0,0,7.4-4.526s5.012-.4,6.387.4,5.368,5.321,5.68,11.752l12.733,12.9s2.081-10.556,4.3-11.843c0,0-2.618-3.724.353-5.677s8.648-1.6,8.648-1.6l28.342,2.476s1.952,2.971-8.071,3.772a153.456,153.456,0,0,1-19.249.227s-.133,2.129,1.287,2.218,8.383,2.658,6.166,3.945-7.718-1.905-7.718-1.905l-4.873,21.069s9.1,14.1,12.026,24.257S321,516,321,516l-57.091-4.744s5.785-42.649-10.764-62.913-21.519-31.972-21.519-31.972l-11.743,39.875s-4.567,4.7-9.225-.574-17.221-43.815-17.221-43.815,1.6-2.75,3.016-2.662.22-3.548.22-3.548-7.317,3.107-8.736,3.018-8.472-1.239-8.472-1.239.133-2.129,3.769-3.327l-.577-2.174s-19.072-2.611-17.432-6.071l35.527,1.5L214.6,438.108l8.775-26.525s-9.759-3.457-12.909-10.064l-4.346,1.154.974-4.214-1.331-1.507-2.838-.177,3.1-4.081s-2.529-5.144-1.82-5.1l-7.717-1.9,6.118-6.743s1.817-6.3-9.361-9.844l9.711-7.232-9.8-14.145,14.193.883s-5.993-18.183-1.558-20.756Z"/>
    <g id="Grupo_35" data-name="Grupo 35">
      <g id="Grupo_32" data-name="Grupo 32">
        <path id="Trazado_48" data-name="Trazado 48" d="M210.41,494.717q.856.792.066,2.376a10.022,10.022,0,0,1-2.673,3.135,19.716,19.716,0,0,1-4.554,2.739,14.484,14.484,0,0,1-5.61,1.254,12.748,12.748,0,0,1-5.874-1.353,13.58,13.58,0,0,1-5.313-5.115,26.737,26.737,0,0,1-8.052,2.376,23.622,23.622,0,0,1-8.613-.4,22.919,22.919,0,0,1-8.019-3.63,20.036,20.036,0,0,1-6.2-7.326,26.931,26.931,0,0,1-2.838-8.415,27.511,27.511,0,0,1-.033-8.811,29,29,0,0,1,2.739-8.448,25.656,25.656,0,0,1,5.511-7.326,30.81,30.81,0,0,1,8.316-5.445,34.413,34.413,0,0,1,11.055-2.8,35.248,35.248,0,0,1,9.768.264,23.23,23.23,0,0,1,7.194,2.475,15.391,15.391,0,0,1,4.752,4.026,14.651,14.651,0,0,1,2.508,4.95,14.17,14.17,0,0,1,.462,5.247,13.3,13.3,0,0,1-1.386,4.818,9.678,9.678,0,0,1-3.1,3.7,8.9,8.9,0,0,1-3.894,1.518,10.972,10.972,0,0,1-4.059-.231,10.507,10.507,0,0,1-3.531-1.551,7.769,7.769,0,0,1-2.343-2.475,3.884,3.884,0,0,1-.429-3,6,6,0,0,0-.363-4.323,6.109,6.109,0,0,0-2.871-2.64,10.965,10.965,0,0,0-4.521-.924,16.244,16.244,0,0,0-5.247.825,18.088,18.088,0,0,0-5.082,2.64,14.882,14.882,0,0,0-4.059,4.521A16.946,16.946,0,0,0,162,473.8a21.539,21.539,0,0,0,.759,8.382,10.422,10.422,0,0,0,1.98,4.092,8.659,8.659,0,0,0,3.036,2.376,9.779,9.779,0,0,0,3.63.891,11.862,11.862,0,0,0,3.663-.363,11.247,11.247,0,0,0,3.2-1.386,7.513,7.513,0,0,0,2.31-2.244,6.11,6.11,0,0,0-2.508-2.145,5.167,5.167,0,0,0-2.244-.33,9.973,9.973,0,0,0-1.848.33,1.132,1.132,0,0,1-1.188-.165,1.944,1.944,0,0,1-.264-2.376A7.109,7.109,0,0,1,175,478.118a14.032,14.032,0,0,1,4.587-2.013,13.691,13.691,0,0,1,6.072-.1,19.479,19.479,0,0,1,6.9,2.97,28.117,28.117,0,0,1,7.095,7.161,34.328,34.328,0,0,0,4.455,5.247,13.423,13.423,0,0,0,3.036,2.178,5.681,5.681,0,0,0,1.98.594A1.872,1.872,0,0,1,210.41,494.717Z"/>
        <path id="Trazado_49" data-name="Trazado 49" d="M216.3,488.591a10.4,10.4,0,0,0-5.645-2.812c-.181-.134-.475-.366-.9-.744a25.9,25.9,0,0,1-3.23-3.893q-.483-.666-.971-1.3a18.171,18.171,0,0,0,5.61-6.646,21.845,21.845,0,0,0,2.288-7.868,22.663,22.663,0,0,0-.618-7.877,4.542,4.542,0,0,1-3.008-3.284,4.849,4.849,0,0,1-.86-1.485,5.239,5.239,0,0,1-.834-1.6c.029.094.05.159.072.227.114.281.179.563,0,0-.023-.055-.046-.11-.07-.157a11.788,11.788,0,0,1-.661-1.542c-.011-.03-.038-.127-.067-.231-.059-.136-.185-.469-.213-.532-.434-.979-1.012-1.9-1.435-2.889a24.988,24.988,0,0,0-4.295-3.088,31.734,31.734,0,0,0-9.819-3.434,43.916,43.916,0,0,0-12.144-.372,43.072,43.072,0,0,0-13.772,3.533,39.418,39.418,0,0,0-10.589,6.965,34.259,34.259,0,0,0-7.313,9.739,37.614,37.614,0,0,0-3.532,10.914,36.116,36.116,0,0,0,.038,11.511,35.455,35.455,0,0,0,3.689,10.977,28.542,28.542,0,0,0,8.862,10.358,31.5,31.5,0,0,0,10.974,4.95,32.146,32.146,0,0,0,11.687.539,37.347,37.347,0,0,0,4.3-.843,18.976,18.976,0,0,0,4.223,2.814,21.293,21.293,0,0,0,9.319,2.2c.148,0,.3,0,.445-.005a23.024,23.024,0,0,0,8.87-1.985,28.319,28.319,0,0,0,6.509-3.948,18.427,18.427,0,0,0,4.868-5.892C220.267,496.519,219.566,491.709,216.3,488.591Zm-41.486-19.88a8.572,8.572,0,0,1,1.062-.428,8.761,8.761,0,0,1,1.169-.3Q175.89,468.308,174.817,468.711Zm20.648,26.5a5.584,5.584,0,0,1-1.863-2.059,8.489,8.489,0,0,0-5.46-3.734,8.5,8.5,0,0,0,.83-2.535,23.652,23.652,0,0,1,3.8,4.248,56.178,56.178,0,0,0,3.509,4.409A5.712,5.712,0,0,1,195.465,495.215Zm1.076-31.573a4.9,4.9,0,0,1-.491,1.783c-.2.39-.343.555-.33.556a1.223,1.223,0,0,1-.193.11,2.426,2.426,0,0,1-.564.01,13.7,13.7,0,0,0-1.618-7.247,14.341,14.341,0,0,0-.991-1.564c.259.118.5.242.731.371a7.087,7.087,0,0,1,2.176,1.776,6.2,6.2,0,0,1,1.086,2.083A5.709,5.709,0,0,1,196.541,463.642Z" fill="#01b1ca"/>
        <path id="Trazado_50" data-name="Trazado 50" d="M208.729,502.646l.025,0Z" fill="#01b1ca"/>
        <path id="Trazado_51" data-name="Trazado 51" d="M202.976,493.115Z" fill="#01b1ca"/>
        <path id="Trazado_52" data-name="Trazado 52" d="M171.621,475.231l-.035.01Z" fill="#01b1ca"/>
      </g>
      <g id="Grupo_33" data-name="Grupo 33">
        <path id="Trazado_53" data-name="Trazado 53" d="M226.25,469.637a4.909,4.909,0,0,1,.792,3.168,6.915,6.915,0,0,1-1.155,3.333,8,8,0,0,1-2.871,2.574,8.1,8.1,0,0,1-4.422.891,4.061,4.061,0,0,0,2.574.726,8.953,8.953,0,0,0,8.382-6.138,15.433,15.433,0,0,1,.462,6.336,11.411,11.411,0,0,1-4.191,8.052,15.718,15.718,0,0,1-18.018,0,11.4,11.4,0,0,1-4.191-8.052,16.3,16.3,0,0,1,.33-6.105,11.355,11.355,0,0,1,2.442-4.686,11.57,11.57,0,0,1,4.356-3.036,15.812,15.812,0,0,1,6.072-1.089,15.04,15.04,0,0,1,5.676.99A7.852,7.852,0,0,1,226.25,469.637Zm-4.62,5.412a1.13,1.13,0,0,0-.231-.891,1.69,1.69,0,0,0-.792-.528,2.022,2.022,0,0,0-1.023-.066,2.1,2.1,0,0,0-.99.495,2,2,0,0,0-.792.99,6.939,6.939,0,0,0-.4,1.452,6.355,6.355,0,0,0,2.8.033A1.635,1.635,0,0,0,221.63,475.049Z"/>
        <path id="Trazado_54" data-name="Trazado 54" d="M237.653,471.625a8.482,8.482,0,0,0-3.049-4.268,13.308,13.308,0,0,0-1.246-2.381,16.447,16.447,0,0,0-7.677-6.252,22.515,22.515,0,0,0-7.014-1.5,4.767,4.767,0,0,1-2.944.924,5.157,5.157,0,0,1-1.891-.343,4.708,4.708,0,0,1-.959-.341c-.033-.013-.067-.019-.1-.032a22.663,22.663,0,0,0-5.273,1.412,20.054,20.054,0,0,0-7.492,5.273,19.829,19.829,0,0,0-4.283,8.13,24.768,24.768,0,0,0-.558,9.244,19.913,19.913,0,0,0,7.371,13.763,24.17,24.17,0,0,0,28.548,0,19.942,19.942,0,0,0,7.375-13.8A23.857,23.857,0,0,0,237.653,471.625Z" fill="#01b1ca"/>
      </g>
      <g id="Grupo_34" data-name="Grupo 34">
        <path id="Trazado_55" data-name="Trazado 55" d="M229.087,462.311c.309,0,.649-.01,1.023-.033s.8-.055,1.287-.1a18.613,18.613,0,0,1,4.389-6.831,12.671,12.671,0,0,1,6.3-3.333,7.89,7.89,0,0,1,4.257-.033,3.516,3.516,0,0,1,2.079,1.914,7.189,7.189,0,0,1,.462,3.366,29.27,29.27,0,0,1-.659,4.389q.461,0,.857.033c.264.023.528.033.792.033a3.51,3.51,0,0,1,2.607,1.155,3.346,3.346,0,0,1,.792,2.244,4.14,4.14,0,0,1-.891,2.376,3.947,3.947,0,0,1-2.508,1.485q-.726.134-1.649.264t-2.047.2q-.264.926-.462,1.782t-.33,1.65a6.842,6.842,0,0,0,0,3.564,2.015,2.015,0,0,0,1.32,1.452,2.144,2.144,0,0,0,1.881-.726,7.214,7.214,0,0,0,1.749-2.97,19.831,19.831,0,0,1,.627,6.1,14.481,14.481,0,0,1-1.353,5.544,10.24,10.24,0,0,1-3.4,4.026,9.244,9.244,0,0,1-5.444,1.551,13.056,13.056,0,0,1-4.521-.759,7.745,7.745,0,0,1-3.565-2.739,15.111,15.111,0,0,1-2.343-5.412,37.122,37.122,0,0,1-.858-8.778q0-1.252.066-2.475t.2-2.343a.131.131,0,0,1-.1-.033.136.136,0,0,0-.1-.033,5.153,5.153,0,0,1-2.9-1.419,3.142,3.142,0,0,1-.925-2.112,2.8,2.8,0,0,1,.858-1.98A3.772,3.772,0,0,1,229.087,462.311Z"/>
        <path id="Trazado_56" data-name="Trazado 56" d="M240.77,499.917a21.607,21.607,0,0,1-7.439-1.275,16.142,16.142,0,0,1-7.446-5.622,23.157,23.157,0,0,1-3.791-8.455,44.84,44.84,0,0,1-1.111-10.78c-.224-.213-.44-.433-.647-.663a11.5,11.5,0,0,1-3.115-7.808,11.338,11.338,0,0,1,3.231-7.871,11.715,11.715,0,0,1,5.4-3.162,24.974,24.974,0,0,1,4.078-5.089,21.1,21.1,0,0,1,10.467-5.5,15.68,15.68,0,0,1,8.952.341,12.068,12.068,0,0,1,6.864,6.449,14.774,14.774,0,0,1,1.188,5.356,11.29,11.29,0,0,1,1.7,1.7,11.807,11.807,0,0,1,2.677,7.81,12.676,12.676,0,0,1-2.563,7.219c-.129.173-.262.343-.4.508a28.388,28.388,0,0,1,.643,7.683,22.982,22.982,0,0,1-2.178,8.768,18.686,18.686,0,0,1-6.18,7.307A17.6,17.6,0,0,1,240.77,499.917Z" fill="#01b1ca"/>
      </g>
    </g>
    <g id="Grupo_36" data-name="Grupo 36">
      <path id="Trazado_57" data-name="Trazado 57" d="M207.96,516.372a16.469,16.469,0,0,1,2.772-7.92,23.584,23.584,0,0,1,5.907-6.006,30.536,30.536,0,0,1,7.887-3.993,35.376,35.376,0,0,1,8.844-1.815,42.663,42.663,0,0,1,10.263.264,18.753,18.753,0,0,1,6.864,2.376,8.857,8.857,0,0,1,3.6,3.993,8,8,0,0,1,.4,4.983,7.458,7.458,0,0,1-2.178,4.158,9.143,9.143,0,0,1-3.762,2.112,12.05,12.05,0,0,1-4.356.4,11.358,11.358,0,0,1-3.96-1.023,6.372,6.372,0,0,1-2.607-2.145,3.253,3.253,0,0,1-.3-3.036,2.1,2.1,0,0,0-.528-2.475,4.991,4.991,0,0,0-2.937-1.023,15.374,15.374,0,0,0-4.224.363,15.905,15.905,0,0,0-4.389,1.617,10.648,10.648,0,0,0-3.366,2.838A5.724,5.724,0,0,0,220.7,514a4.389,4.389,0,0,0,1.254,3.333,4.581,4.581,0,0,0,2.937.891,18.947,18.947,0,0,0,4.224-.561q2.409-.559,5.082-1.089a37.6,37.6,0,0,1,5.544-.66,16.4,16.4,0,0,1,5.643.726,12.717,12.717,0,0,1,5.577,3.267,10.994,10.994,0,0,1,2.706,4.851,14.3,14.3,0,0,1,.231,5.742,20.342,20.342,0,0,1-1.914,5.973,25.822,25.822,0,0,1-3.729,5.544,22.432,22.432,0,0,1-5.181,4.389,32.374,32.374,0,0,1-7.227,3.3,40.149,40.149,0,0,1-15.873,1.749,26.857,26.857,0,0,1-7.1-1.584,16.235,16.235,0,0,1-5.412-3.3,10.055,10.055,0,0,1-2.937-4.983,10.706,10.706,0,0,1-.066-5.643,8.207,8.207,0,0,1,2.145-3.795,4.131,4.131,0,0,1,3.135-1.221,3.673,3.673,0,0,1,2.9,2.145,11.163,11.163,0,0,0,3.663,3.663,23.091,23.091,0,0,0,5.511,2.607,30.04,30.04,0,0,0,6.3,1.32,23.113,23.113,0,0,0,6.072-.132,12.978,12.978,0,0,0,4.851-1.749,5.818,5.818,0,0,0,2.64-3.531,5.237,5.237,0,0,0,.033-2.541,2.764,2.764,0,0,0-1.848-1.848,11.472,11.472,0,0,0-4.653-.462,38.071,38.071,0,0,0-8.25,1.683,19.669,19.669,0,0,1-9.042.792,11.572,11.572,0,0,1-6.1-3.036,12.659,12.659,0,0,1-3.3-5.841A21.159,21.159,0,0,1,207.96,516.372Z" stroke="#01b1ca" stroke-linecap="round" stroke-linejoin="round" stroke-width="15"/>
      <path id="Trazado_58" data-name="Trazado 58" d="M273.1,528.912a8.919,8.919,0,0,0,5.049-1.617,8.627,8.627,0,0,0,3.4-4.521,15.593,15.593,0,0,1,.528,3,16.979,16.979,0,0,1-.066,3.333,11.411,11.411,0,0,1-4.191,8.052,15.718,15.718,0,0,1-18.018,0,11.4,11.4,0,0,1-4.191-8.052,16.3,16.3,0,0,1,.33-6.1,11.356,11.356,0,0,1,2.442-4.686,11.57,11.57,0,0,1,4.356-3.036,15.812,15.812,0,0,1,6.072-1.089,15.04,15.04,0,0,1,5.676.99,7.852,7.852,0,0,1,3.762,3.036,7.6,7.6,0,0,1,.858,2.013,5.247,5.247,0,0,1,.132,2.013,4.776,4.776,0,0,1-.594,1.782,3.306,3.306,0,0,1-1.32,1.254,2.432,2.432,0,0,1-2.508.363,2.116,2.116,0,0,1-1.056-1.881,1.494,1.494,0,0,0-1.155-1.452,2.357,2.357,0,0,0-2.079.33,2.445,2.445,0,0,0-.891,1.419,4.555,4.555,0,0,0-.1,2.112,3.554,3.554,0,0,0,1.023,1.914A3.454,3.454,0,0,0,273.1,528.912Z" stroke="#01b1ca" stroke-linecap="round" stroke-linejoin="round" stroke-width="15"/>
      <path id="Trazado_59" data-name="Trazado 59" d="M281.351,520.2a62.815,62.815,0,0,1,.165-10.428,17.606,17.606,0,0,1,1.881-6.534,7.48,7.48,0,0,1,3.795-3.4,16.07,16.07,0,0,1,5.907-.957q3.96,0,5.61,1.65a6.23,6.23,0,0,1,1.749,4.356,18.05,18.05,0,0,1-.99,6.105q-1.089,3.4-2.541,6.831a14.709,14.709,0,0,1,2.871-2.244,10.05,10.05,0,0,1,3.333-1.254,10.591,10.591,0,0,1,4.258.066,7.545,7.545,0,0,1,3.3,1.65,7.46,7.46,0,0,1,2.047,3,10.091,10.091,0,0,1,.561,4.191,4.717,4.717,0,0,0,.363,2.607,1.465,1.465,0,0,0,1.287.891,2.443,2.443,0,0,0,1.684-.957,8.754,8.754,0,0,0,1.617-3,19.892,19.892,0,0,1,.627,6.105,14.516,14.516,0,0,1-1.353,5.544,10.256,10.256,0,0,1-3.4,4.026A9.252,9.252,0,0,1,308.676,540a13.226,13.226,0,0,1-5.149-.825,6.949,6.949,0,0,1-2.9-2.145,6.575,6.575,0,0,1-1.255-2.937,11.6,11.6,0,0,1-.066-3.267,3.35,3.35,0,0,0-.33-2.112,1.126,1.126,0,0,0-1.056-.66,1.666,1.666,0,0,0-1.122.891,4.812,4.812,0,0,0-.528,2.541,1.515,1.515,0,0,0,.033.3,1.537,1.537,0,0,1,.033.3q.132,1.717.166,3.168a8.634,8.634,0,0,1-.265,2.508,3.083,3.083,0,0,1-1.056,1.65,3.531,3.531,0,0,1-2.211.594,12.146,12.146,0,0,1-3.926-.66,7.56,7.56,0,0,1-3.532-2.739,18.29,18.29,0,0,1-2.706-5.973A47.722,47.722,0,0,1,281.351,520.2Z" stroke="#01b1ca" stroke-linecap="round" stroke-linejoin="round" stroke-width="15"/>
      <path id="Trazado_60" data-name="Trazado 60" d="M358.439,514.326a7.493,7.493,0,0,1,3,.825,5.247,5.247,0,0,1,2.079,2.079,8.328,8.328,0,0,1,.958,3.5,21.2,21.2,0,0,1-.364,5.148,17.9,17.9,0,0,1-2.145,6.072,16.325,16.325,0,0,1-3.729,4.422,15.546,15.546,0,0,1-4.917,2.706,17.922,17.922,0,0,1-5.775.924,9.112,9.112,0,0,1-5.346-1.518,10.409,10.409,0,0,1-3.366-3.828,12.034,12.034,0,0,1-3.729,3.861A9.508,9.508,0,0,1,329.8,540a11.13,11.13,0,0,1-5.28-1.188,10.346,10.346,0,0,1-3.7-3.267,14.032,14.032,0,0,1-2.112-4.884,24.152,24.152,0,0,1-.594-6.039q.133-5.609,2.442-8.184t7.458-2.112a8.74,8.74,0,0,1,2.772.594,2.891,2.891,0,0,1,1.518,1.452,5.591,5.591,0,0,1,.4,2.574,23.5,23.5,0,0,1-.594,3.96,6.271,6.271,0,0,0-.033,3.069q.361,1.155,1.023,1.287t1.32-.858a7.1,7.1,0,0,0,.792-3.366q.33-4.752,1.947-6.7t5.116-1.947q3.431,0,4.421,1.881t-.066,6.633a6.271,6.271,0,0,0-.033,3.069q.361,1.155,1.023,1.287t1.321-.858a7.11,7.11,0,0,0,.792-3.366q.327-4.752,2.376-6.9T358.439,514.326Z" stroke="#01b1ca" stroke-linecap="round" stroke-linejoin="round" stroke-width="15"/>
      <path id="Trazado_61" data-name="Trazado 61" d="M366.688,527.13a14.458,14.458,0,0,1,1.057-5.874,6.273,6.273,0,0,1,3.432-3.366,6.9,6.9,0,0,1-2.046-2.178,7.47,7.47,0,0,1-.99-3.036,8.043,8.043,0,0,1,1.65-6.468q2.111-2.441,6.27-2.442a7.762,7.762,0,0,1,6.2,2.442,8.054,8.054,0,0,1,1.65,6.468,6.907,6.907,0,0,1-3.63,5.544A3.679,3.679,0,0,1,382,520.266a7.151,7.151,0,0,1,.2,2.97,4.146,4.146,0,0,0,.231,2.607,1.482,1.482,0,0,0,1.32.891,2.563,2.563,0,0,0,1.749-.957,8.374,8.374,0,0,0,1.649-3,19.8,19.8,0,0,1,.627,6.105,14.48,14.48,0,0,1-1.352,5.544,10.242,10.242,0,0,1-3.4,4.026A9.244,9.244,0,0,1,377.579,540a11.406,11.406,0,0,1-5.313-1.089,9.227,9.227,0,0,1-3.333-2.871,11.037,11.037,0,0,1-1.749-4.092A22.932,22.932,0,0,1,366.688,527.13Z" stroke="#01b1ca" stroke-linecap="round" stroke-linejoin="round" stroke-width="15"/>
      <path id="Trazado_62" data-name="Trazado 62" d="M393.088,522.18a35.1,35.1,0,0,1,5.874-2.97,13.185,13.185,0,0,1,2.046-.594,3.594,3.594,0,0,1,1.682,0,1.611,1.611,0,0,1,1.024.825,2.886,2.886,0,0,1,.065,1.881,4.943,4.943,0,0,0,.1,3.234,1.931,1.931,0,0,0,1.517,1.155,2.621,2.621,0,0,0,1.915-.66,3.824,3.824,0,0,0,1.287-2.277,8.183,8.183,0,0,1,.4,4.488,6.037,6.037,0,0,1-1.584,3,4.371,4.371,0,0,1-2.639,1.254A3.828,3.828,0,0,1,402,530.76a43.517,43.517,0,0,0-.032,4.488q.1,2.178.23,4.158.132,2.11.165,3.894a12.758,12.758,0,0,1-.263,3.069,3.94,3.94,0,0,1-1.057,2.013,3.078,3.078,0,0,1-2.211.726,10.349,10.349,0,0,1-3.927-.792,8,8,0,0,1-3.563-3.366,24.7,24.7,0,0,1-2.739-7.359,67.491,67.491,0,0,1-1.386-12.705,93.409,93.409,0,0,1,.165-12.738,24.663,24.663,0,0,1,1.881-7.953,8.33,8.33,0,0,1,3.795-4.125,13.265,13.265,0,0,1,5.907-1.188,8.371,8.371,0,0,1,5.147,1.32,6.1,6.1,0,0,1,2.245,3.531,14.314,14.314,0,0,1,.131,5.181,62.11,62.11,0,0,1-1.187,6.27q-.792,3.3-1.684,6.8a63.753,63.753,0,0,0-1.352,6.732,5.651,5.651,0,0,0-.165,1.023q-.034.5-.1,1.023a5.757,5.757,0,0,1-1.716-2.64Z" stroke="#01b1ca" stroke-linecap="round" stroke-linejoin="round" stroke-width="15"/>
      <path id="Trazado_63" data-name="Trazado 63" d="M410.136,510.894c.308,0,.648-.01,1.022-.033s.8-.055,1.287-.1a18.614,18.614,0,0,1,4.39-6.831,12.667,12.667,0,0,1,6.3-3.333,7.891,7.891,0,0,1,4.257-.033,3.516,3.516,0,0,1,2.079,1.914,7.2,7.2,0,0,1,.462,3.366,29.271,29.271,0,0,1-.661,4.389c.308,0,.6.011.859.033s.528.033.792.033a3.51,3.51,0,0,1,2.606,1.155,3.341,3.341,0,0,1,.792,2.244,4.139,4.139,0,0,1-.89,2.376,3.952,3.952,0,0,1-2.508,1.485c-.485.089-1.034.176-1.651.264s-1.3.155-2.046.2c-.175.617-.33,1.211-.461,1.782s-.243,1.122-.331,1.65a6.842,6.842,0,0,0,0,3.564,2.016,2.016,0,0,0,1.321,1.452,2.146,2.146,0,0,0,1.881-.726,7.224,7.224,0,0,0,1.749-2.97,19.863,19.863,0,0,1,.627,6.105,14.5,14.5,0,0,1-1.353,5.544,10.248,10.248,0,0,1-3.4,4.026A9.251,9.251,0,0,1,421.817,540a13.059,13.059,0,0,1-4.52-.759,7.756,7.756,0,0,1-3.565-2.739,15.094,15.094,0,0,1-2.342-5.412,37.062,37.062,0,0,1-.859-8.778c0-.835.024-1.66.067-2.475s.109-1.594.2-2.343a.133.133,0,0,1-.1-.033.134.134,0,0,0-.1-.033,5.162,5.162,0,0,1-2.9-1.419,3.143,3.143,0,0,1-.923-2.112,2.8,2.8,0,0,1,.858-1.98A3.768,3.768,0,0,1,410.136,510.894Z" stroke="#01b1ca" stroke-linecap="round" stroke-linejoin="round" stroke-width="15"/>
      <path id="Trazado_64" data-name="Trazado 64" d="M458.711,514.326a9.383,9.383,0,0,1,3.6.594,4.063,4.063,0,0,1,2.145,2.31,14,14,0,0,1,.824,4.851,78.036,78.036,0,0,1-.3,8.217,38.047,38.047,0,0,1-1.617,8.415,15.645,15.645,0,0,1-3.168,5.676,13.25,13.25,0,0,1-5.015,3.4,27.85,27.85,0,0,1-7.1,1.65,29.68,29.68,0,0,1-6.534.066,18.3,18.3,0,0,1-5.479-1.452A8.071,8.071,0,0,1,433,545.709a8.715,8.715,0,0,1-1.519-2.937,7.249,7.249,0,0,1-.23-2.97,5.8,5.8,0,0,1,.792-2.376,2.516,2.516,0,0,1,1.551-1.155,2.247,2.247,0,0,1,2.012.693,12.549,12.549,0,0,0,5.082,2.541,13.242,13.242,0,0,0,3.1.363,9.348,9.348,0,0,0,3.1-.528,8.013,8.013,0,0,0,4.291-3.036,3.464,3.464,0,0,0,.066-3.828,9.864,9.864,0,0,1-2.838,3.069,9.557,9.557,0,0,1-5.017,1.749,10.767,10.767,0,0,1-4.95-.594,9.957,9.957,0,0,1-3.827-2.574,12.314,12.314,0,0,1-2.475-4.092,14.74,14.74,0,0,1-.891-5.214,10.767,10.767,0,0,1,2.97-8.019q2.97-2.936,8.381-2.475a9.287,9.287,0,0,1,2.872.594,2.614,2.614,0,0,1,1.485,1.452,5.248,5.248,0,0,1,.2,2.574,24.5,24.5,0,0,1-.925,3.96,5.86,5.86,0,0,0-.3,3.069q.3,1.155.991,1.287t1.452-.858a7.89,7.89,0,0,0,1.155-3.366q.726-4.554,2.772-6.633T458.711,514.326Z" stroke="#01b1ca" stroke-linecap="round" stroke-linejoin="round" stroke-width="15"/>
    </g>
    <g id="Grupo_37" data-name="Grupo 37">
      <path id="Trazado_65" data-name="Trazado 65" d="M210.41,494.717q.856.792.066,2.376a10.022,10.022,0,0,1-2.673,3.135,19.716,19.716,0,0,1-4.554,2.739,14.484,14.484,0,0,1-5.61,1.254,12.748,12.748,0,0,1-5.874-1.353,13.58,13.58,0,0,1-5.313-5.115,26.737,26.737,0,0,1-8.052,2.376,23.622,23.622,0,0,1-8.613-.4,22.919,22.919,0,0,1-8.019-3.63,20.036,20.036,0,0,1-6.2-7.326,26.931,26.931,0,0,1-2.838-8.415,27.511,27.511,0,0,1-.033-8.811,29,29,0,0,1,2.739-8.448,25.656,25.656,0,0,1,5.511-7.326,30.81,30.81,0,0,1,8.316-5.445,34.413,34.413,0,0,1,11.055-2.8,35.248,35.248,0,0,1,9.768.264,23.23,23.23,0,0,1,7.194,2.475,15.391,15.391,0,0,1,4.752,4.026,14.651,14.651,0,0,1,2.508,4.95,14.17,14.17,0,0,1,.462,5.247,13.3,13.3,0,0,1-1.386,4.818,9.678,9.678,0,0,1-3.1,3.7,8.9,8.9,0,0,1-3.894,1.518,10.972,10.972,0,0,1-4.059-.231,10.507,10.507,0,0,1-3.531-1.551,7.769,7.769,0,0,1-2.343-2.475,3.884,3.884,0,0,1-.429-3,6,6,0,0,0-.363-4.323,6.109,6.109,0,0,0-2.871-2.64,10.965,10.965,0,0,0-4.521-.924,16.244,16.244,0,0,0-5.247.825,18.088,18.088,0,0,0-5.082,2.64,14.882,14.882,0,0,0-4.059,4.521A16.946,16.946,0,0,0,162,473.8a21.539,21.539,0,0,0,.759,8.382,10.422,10.422,0,0,0,1.98,4.092,8.659,8.659,0,0,0,3.036,2.376,9.779,9.779,0,0,0,3.63.891,11.862,11.862,0,0,0,3.663-.363,11.247,11.247,0,0,0,3.2-1.386,7.513,7.513,0,0,0,2.31-2.244,6.11,6.11,0,0,0-2.508-2.145,5.167,5.167,0,0,0-2.244-.33,9.973,9.973,0,0,0-1.848.33,1.132,1.132,0,0,1-1.188-.165,1.944,1.944,0,0,1-.264-2.376A7.109,7.109,0,0,1,175,478.118a14.032,14.032,0,0,1,4.587-2.013,13.691,13.691,0,0,1,6.072-.1,19.479,19.479,0,0,1,6.9,2.97,28.117,28.117,0,0,1,7.095,7.161,34.328,34.328,0,0,0,4.455,5.247,13.423,13.423,0,0,0,3.036,2.178,5.681,5.681,0,0,0,1.98.594A1.872,1.872,0,0,1,210.41,494.717Z" fill="#fff"/>
      <path id="Trazado_66" data-name="Trazado 66" d="M226.25,469.637a4.909,4.909,0,0,1,.792,3.168,6.915,6.915,0,0,1-1.155,3.333,8,8,0,0,1-2.871,2.574,8.1,8.1,0,0,1-4.422.891,4.061,4.061,0,0,0,2.574.726,8.953,8.953,0,0,0,8.382-6.138,15.433,15.433,0,0,1,.462,6.336,11.411,11.411,0,0,1-4.191,8.052,15.718,15.718,0,0,1-18.018,0,11.4,11.4,0,0,1-4.191-8.052,16.3,16.3,0,0,1,.33-6.105,11.355,11.355,0,0,1,2.442-4.686,11.57,11.57,0,0,1,4.356-3.036,15.812,15.812,0,0,1,6.072-1.089,15.04,15.04,0,0,1,5.676.99A7.852,7.852,0,0,1,226.25,469.637Zm-4.62,5.412a1.13,1.13,0,0,0-.231-.891,1.69,1.69,0,0,0-.792-.528,2.022,2.022,0,0,0-1.023-.066,2.1,2.1,0,0,0-.99.495,2,2,0,0,0-.792.99,6.939,6.939,0,0,0-.4,1.452,6.355,6.355,0,0,0,2.8.033A1.635,1.635,0,0,0,221.63,475.049Z" fill="#fff"/>
      <path id="Trazado_67" data-name="Trazado 67" d="M229.087,462.311c.309,0,.649-.01,1.023-.033s.8-.055,1.287-.1a18.613,18.613,0,0,1,4.389-6.831,12.671,12.671,0,0,1,6.3-3.333,7.89,7.89,0,0,1,4.257-.033,3.516,3.516,0,0,1,2.079,1.914,7.189,7.189,0,0,1,.462,3.366,29.27,29.27,0,0,1-.659,4.389q.461,0,.857.033c.264.023.528.033.792.033a3.51,3.51,0,0,1,2.607,1.155,3.346,3.346,0,0,1,.792,2.244,4.14,4.14,0,0,1-.891,2.376,3.947,3.947,0,0,1-2.508,1.485q-.726.134-1.649.264t-2.047.2q-.264.926-.462,1.782t-.33,1.65a6.842,6.842,0,0,0,0,3.564,2.015,2.015,0,0,0,1.32,1.452,2.144,2.144,0,0,0,1.881-.726,7.214,7.214,0,0,0,1.749-2.97,19.831,19.831,0,0,1,.627,6.1,14.481,14.481,0,0,1-1.353,5.544,10.24,10.24,0,0,1-3.4,4.026,9.244,9.244,0,0,1-5.444,1.551,13.056,13.056,0,0,1-4.521-.759,7.745,7.745,0,0,1-3.565-2.739,15.111,15.111,0,0,1-2.343-5.412,37.122,37.122,0,0,1-.858-8.778q0-1.252.066-2.475t.2-2.343a.131.131,0,0,1-.1-.033.136.136,0,0,0-.1-.033,5.153,5.153,0,0,1-2.9-1.419,3.142,3.142,0,0,1-.925-2.112,2.8,2.8,0,0,1,.858-1.98A3.772,3.772,0,0,1,229.087,462.311Z" fill="#fff"/>
    </g>
    <g id="Grupo_38" data-name="Grupo 38">
      <path id="Trazado_68" data-name="Trazado 68" d="M207.96,516.372a16.469,16.469,0,0,1,2.772-7.92,23.584,23.584,0,0,1,5.907-6.006,30.536,30.536,0,0,1,7.887-3.993,35.376,35.376,0,0,1,8.844-1.815,42.663,42.663,0,0,1,10.263.264,18.753,18.753,0,0,1,6.864,2.376,8.857,8.857,0,0,1,3.6,3.993,8,8,0,0,1,.4,4.983,7.458,7.458,0,0,1-2.178,4.158,9.143,9.143,0,0,1-3.762,2.112,12.05,12.05,0,0,1-4.356.4,11.358,11.358,0,0,1-3.96-1.023,6.372,6.372,0,0,1-2.607-2.145,3.253,3.253,0,0,1-.3-3.036,2.1,2.1,0,0,0-.528-2.475,4.991,4.991,0,0,0-2.937-1.023,15.374,15.374,0,0,0-4.224.363,15.905,15.905,0,0,0-4.389,1.617,10.648,10.648,0,0,0-3.366,2.838A5.724,5.724,0,0,0,220.7,514a4.389,4.389,0,0,0,1.254,3.333,4.581,4.581,0,0,0,2.937.891,18.947,18.947,0,0,0,4.224-.561q2.409-.559,5.082-1.089a37.6,37.6,0,0,1,5.544-.66,16.4,16.4,0,0,1,5.643.726,12.717,12.717,0,0,1,5.577,3.267,10.994,10.994,0,0,1,2.706,4.851,14.3,14.3,0,0,1,.231,5.742,20.342,20.342,0,0,1-1.914,5.973,25.822,25.822,0,0,1-3.729,5.544,22.432,22.432,0,0,1-5.181,4.389,32.374,32.374,0,0,1-7.227,3.3,40.149,40.149,0,0,1-15.873,1.749,26.857,26.857,0,0,1-7.1-1.584,16.235,16.235,0,0,1-5.412-3.3,10.055,10.055,0,0,1-2.937-4.983,10.706,10.706,0,0,1-.066-5.643,8.207,8.207,0,0,1,2.145-3.795,4.131,4.131,0,0,1,3.135-1.221,3.673,3.673,0,0,1,2.9,2.145,11.163,11.163,0,0,0,3.663,3.663,23.091,23.091,0,0,0,5.511,2.607,30.04,30.04,0,0,0,6.3,1.32,23.113,23.113,0,0,0,6.072-.132,12.978,12.978,0,0,0,4.851-1.749,5.818,5.818,0,0,0,2.64-3.531,5.237,5.237,0,0,0,.033-2.541,2.764,2.764,0,0,0-1.848-1.848,11.472,11.472,0,0,0-4.653-.462,38.071,38.071,0,0,0-8.25,1.683,19.669,19.669,0,0,1-9.042.792,11.572,11.572,0,0,1-6.1-3.036,12.659,12.659,0,0,1-3.3-5.841A21.159,21.159,0,0,1,207.96,516.372Z" fill="#fff"/>
      <path id="Trazado_69" data-name="Trazado 69" d="M273.1,528.912a8.919,8.919,0,0,0,5.049-1.617,8.627,8.627,0,0,0,3.4-4.521,15.593,15.593,0,0,1,.528,3,16.979,16.979,0,0,1-.066,3.333,11.411,11.411,0,0,1-4.191,8.052,15.718,15.718,0,0,1-18.018,0,11.4,11.4,0,0,1-4.191-8.052,16.3,16.3,0,0,1,.33-6.1,11.356,11.356,0,0,1,2.442-4.686,11.57,11.57,0,0,1,4.356-3.036,15.812,15.812,0,0,1,6.072-1.089,15.04,15.04,0,0,1,5.676.99,7.852,7.852,0,0,1,3.762,3.036,7.6,7.6,0,0,1,.858,2.013,5.247,5.247,0,0,1,.132,2.013,4.776,4.776,0,0,1-.594,1.782,3.306,3.306,0,0,1-1.32,1.254,2.432,2.432,0,0,1-2.508.363,2.116,2.116,0,0,1-1.056-1.881,1.494,1.494,0,0,0-1.155-1.452,2.357,2.357,0,0,0-2.079.33,2.445,2.445,0,0,0-.891,1.419,4.555,4.555,0,0,0-.1,2.112,3.554,3.554,0,0,0,1.023,1.914A3.454,3.454,0,0,0,273.1,528.912Z" fill="#fff"/>
      <path id="Trazado_70" data-name="Trazado 70" d="M281.351,520.2a62.815,62.815,0,0,1,.165-10.428,17.606,17.606,0,0,1,1.881-6.534,7.48,7.48,0,0,1,3.795-3.4,16.07,16.07,0,0,1,5.907-.957q3.96,0,5.61,1.65a6.23,6.23,0,0,1,1.749,4.356,18.05,18.05,0,0,1-.99,6.105q-1.089,3.4-2.541,6.831a14.709,14.709,0,0,1,2.871-2.244,10.05,10.05,0,0,1,3.333-1.254,10.591,10.591,0,0,1,4.258.066,7.545,7.545,0,0,1,3.3,1.65,7.46,7.46,0,0,1,2.047,3,10.091,10.091,0,0,1,.561,4.191,4.717,4.717,0,0,0,.363,2.607,1.465,1.465,0,0,0,1.287.891,2.443,2.443,0,0,0,1.684-.957,8.754,8.754,0,0,0,1.617-3,19.892,19.892,0,0,1,.627,6.105,14.516,14.516,0,0,1-1.353,5.544,10.256,10.256,0,0,1-3.4,4.026A9.252,9.252,0,0,1,308.676,540a13.226,13.226,0,0,1-5.149-.825,6.949,6.949,0,0,1-2.9-2.145,6.575,6.575,0,0,1-1.255-2.937,11.6,11.6,0,0,1-.066-3.267,3.35,3.35,0,0,0-.33-2.112,1.126,1.126,0,0,0-1.056-.66,1.666,1.666,0,0,0-1.122.891,4.812,4.812,0,0,0-.528,2.541,1.515,1.515,0,0,0,.033.3,1.537,1.537,0,0,1,.033.3q.132,1.717.166,3.168a8.634,8.634,0,0,1-.265,2.508,3.083,3.083,0,0,1-1.056,1.65,3.531,3.531,0,0,1-2.211.594,12.146,12.146,0,0,1-3.926-.66,7.56,7.56,0,0,1-3.532-2.739,18.29,18.29,0,0,1-2.706-5.973A47.722,47.722,0,0,1,281.351,520.2Z" fill="#fff"/>
      <path id="Trazado_71" data-name="Trazado 71" d="M358.439,514.326a7.493,7.493,0,0,1,3,.825,5.247,5.247,0,0,1,2.079,2.079,8.328,8.328,0,0,1,.958,3.5,21.2,21.2,0,0,1-.364,5.148,17.9,17.9,0,0,1-2.145,6.072,16.325,16.325,0,0,1-3.729,4.422,15.546,15.546,0,0,1-4.917,2.706,17.922,17.922,0,0,1-5.775.924,9.112,9.112,0,0,1-5.346-1.518,10.409,10.409,0,0,1-3.366-3.828,12.034,12.034,0,0,1-3.729,3.861A9.508,9.508,0,0,1,329.8,540a11.13,11.13,0,0,1-5.28-1.188,10.346,10.346,0,0,1-3.7-3.267,14.032,14.032,0,0,1-2.112-4.884,24.152,24.152,0,0,1-.594-6.039q.133-5.609,2.442-8.184t7.458-2.112a8.74,8.74,0,0,1,2.772.594,2.891,2.891,0,0,1,1.518,1.452,5.591,5.591,0,0,1,.4,2.574,23.5,23.5,0,0,1-.594,3.96,6.271,6.271,0,0,0-.033,3.069q.361,1.155,1.023,1.287t1.32-.858a7.1,7.1,0,0,0,.792-3.366q.33-4.752,1.947-6.7t5.116-1.947q3.431,0,4.421,1.881t-.066,6.633a6.271,6.271,0,0,0-.033,3.069q.361,1.155,1.023,1.287t1.321-.858a7.11,7.11,0,0,0,.792-3.366q.327-4.752,2.376-6.9T358.439,514.326Z" fill="#fff"/>
      <path id="Trazado_72" data-name="Trazado 72" d="M366.688,527.13a14.458,14.458,0,0,1,1.057-5.874,6.273,6.273,0,0,1,3.432-3.366,6.9,6.9,0,0,1-2.046-2.178,7.47,7.47,0,0,1-.99-3.036,8.043,8.043,0,0,1,1.65-6.468q2.111-2.441,6.27-2.442a7.762,7.762,0,0,1,6.2,2.442,8.054,8.054,0,0,1,1.65,6.468,6.907,6.907,0,0,1-3.63,5.544A3.679,3.679,0,0,1,382,520.266a7.151,7.151,0,0,1,.2,2.97,4.146,4.146,0,0,0,.231,2.607,1.482,1.482,0,0,0,1.32.891,2.563,2.563,0,0,0,1.749-.957,8.374,8.374,0,0,0,1.649-3,19.8,19.8,0,0,1,.627,6.105,14.48,14.48,0,0,1-1.352,5.544,10.242,10.242,0,0,1-3.4,4.026A9.244,9.244,0,0,1,377.579,540a11.406,11.406,0,0,1-5.313-1.089,9.227,9.227,0,0,1-3.333-2.871,11.037,11.037,0,0,1-1.749-4.092A22.932,22.932,0,0,1,366.688,527.13Z" fill="#fff"/>
      <path id="Trazado_73" data-name="Trazado 73" d="M393.088,522.18a35.1,35.1,0,0,1,5.874-2.97,13.185,13.185,0,0,1,2.046-.594,3.594,3.594,0,0,1,1.682,0,1.611,1.611,0,0,1,1.024.825,2.886,2.886,0,0,1,.065,1.881,4.943,4.943,0,0,0,.1,3.234,1.931,1.931,0,0,0,1.517,1.155,2.621,2.621,0,0,0,1.915-.66,3.824,3.824,0,0,0,1.287-2.277,8.183,8.183,0,0,1,.4,4.488,6.037,6.037,0,0,1-1.584,3,4.371,4.371,0,0,1-2.639,1.254A3.828,3.828,0,0,1,402,530.76a43.517,43.517,0,0,0-.032,4.488q.1,2.178.23,4.158.132,2.11.165,3.894a12.758,12.758,0,0,1-.263,3.069,3.94,3.94,0,0,1-1.057,2.013,3.078,3.078,0,0,1-2.211.726,10.349,10.349,0,0,1-3.927-.792,8,8,0,0,1-3.563-3.366,24.7,24.7,0,0,1-2.739-7.359,67.491,67.491,0,0,1-1.386-12.705,93.409,93.409,0,0,1,.165-12.738,24.663,24.663,0,0,1,1.881-7.953,8.33,8.33,0,0,1,3.795-4.125,13.265,13.265,0,0,1,5.907-1.188,8.371,8.371,0,0,1,5.147,1.32,6.1,6.1,0,0,1,2.245,3.531,14.314,14.314,0,0,1,.131,5.181,62.11,62.11,0,0,1-1.187,6.27q-.792,3.3-1.684,6.8a63.753,63.753,0,0,0-1.352,6.732,5.651,5.651,0,0,0-.165,1.023q-.034.5-.1,1.023a5.757,5.757,0,0,1-1.716-2.64Z" fill="#fff"/>
      <path id="Trazado_74" data-name="Trazado 74" d="M410.136,510.894c.308,0,.648-.01,1.022-.033s.8-.055,1.287-.1a18.614,18.614,0,0,1,4.39-6.831,12.667,12.667,0,0,1,6.3-3.333,7.891,7.891,0,0,1,4.257-.033,3.516,3.516,0,0,1,2.079,1.914,7.2,7.2,0,0,1,.462,3.366,29.271,29.271,0,0,1-.661,4.389c.308,0,.6.011.859.033s.528.033.792.033a3.51,3.51,0,0,1,2.606,1.155,3.341,3.341,0,0,1,.792,2.244,4.139,4.139,0,0,1-.89,2.376,3.952,3.952,0,0,1-2.508,1.485c-.485.089-1.034.176-1.651.264s-1.3.155-2.046.2c-.175.617-.33,1.211-.461,1.782s-.243,1.122-.331,1.65a6.842,6.842,0,0,0,0,3.564,2.016,2.016,0,0,0,1.321,1.452,2.146,2.146,0,0,0,1.881-.726,7.224,7.224,0,0,0,1.749-2.97,19.863,19.863,0,0,1,.627,6.105,14.5,14.5,0,0,1-1.353,5.544,10.248,10.248,0,0,1-3.4,4.026A9.251,9.251,0,0,1,421.817,540a13.059,13.059,0,0,1-4.52-.759,7.756,7.756,0,0,1-3.565-2.739,15.094,15.094,0,0,1-2.342-5.412,37.062,37.062,0,0,1-.859-8.778c0-.835.024-1.66.067-2.475s.109-1.594.2-2.343a.133.133,0,0,1-.1-.033.134.134,0,0,0-.1-.033,5.162,5.162,0,0,1-2.9-1.419,3.143,3.143,0,0,1-.923-2.112,2.8,2.8,0,0,1,.858-1.98A3.768,3.768,0,0,1,410.136,510.894Z" fill="#fff"/>
      <path id="Trazado_75" data-name="Trazado 75" d="M458.711,514.326a9.383,9.383,0,0,1,3.6.594,4.063,4.063,0,0,1,2.145,2.31,14,14,0,0,1,.824,4.851,78.036,78.036,0,0,1-.3,8.217,38.047,38.047,0,0,1-1.617,8.415,15.645,15.645,0,0,1-3.168,5.676,13.25,13.25,0,0,1-5.015,3.4,27.85,27.85,0,0,1-7.1,1.65,29.68,29.68,0,0,1-6.534.066,18.3,18.3,0,0,1-5.479-1.452A8.071,8.071,0,0,1,433,545.709a8.715,8.715,0,0,1-1.519-2.937,7.249,7.249,0,0,1-.23-2.97,5.8,5.8,0,0,1,.792-2.376,2.516,2.516,0,0,1,1.551-1.155,2.247,2.247,0,0,1,2.012.693,12.549,12.549,0,0,0,5.082,2.541,13.242,13.242,0,0,0,3.1.363,9.348,9.348,0,0,0,3.1-.528,8.013,8.013,0,0,0,4.291-3.036,3.464,3.464,0,0,0,.066-3.828,9.864,9.864,0,0,1-2.838,3.069,9.557,9.557,0,0,1-5.017,1.749,10.767,10.767,0,0,1-4.95-.594,9.957,9.957,0,0,1-3.827-2.574,12.314,12.314,0,0,1-2.475-4.092,14.74,14.74,0,0,1-.891-5.214,10.767,10.767,0,0,1,2.97-8.019q2.97-2.936,8.381-2.475a9.287,9.287,0,0,1,2.872.594,2.614,2.614,0,0,1,1.485,1.452,5.248,5.248,0,0,1,.2,2.574,24.5,24.5,0,0,1-.925,3.96,5.86,5.86,0,0,0-.3,3.069q.3,1.155.991,1.287t1.452-.858a7.89,7.89,0,0,0,1.155-3.366q.726-4.554,2.772-6.633T458.711,514.326Z" fill="#fff"/>
    </g>
  </g>
</svg>
