<?xml version="1.0" encoding="utf-8"?>
<!-- Generator: Adobe Illustrator 23.0.1, SVG Export Plug-In . SVG Version: 6.00 Build 0)  -->
<svg version="1.1" id="Capa_1" xmlns="http://www.w3.org/2000/svg" xmlns:xlink="http://www.w3.org/1999/xlink" x="0px" y="0px"
	 viewBox="0 0 754 511.6" style="enable-background:new 0 0 754 511.6;" xml:space="preserve">
<style type="text/css">
	.st0{fill:#FFFFFF;}
</style>
<g>
	<g>
		<path class="st0" d="M215.2,402h-54.8V9.1c0-2.7-0.9-4.9-2.6-6.6c-1.7-1.7-3.9-2.6-6.6-2.6H96.5c-2.7,0-4.9,0.9-6.6,2.6
			c-1.7,1.7-2.6,3.9-2.6,6.6V402H32.5c-4.2,0-7,1.9-8.6,5.7c-1.5,3.6-0.9,7,2,10l91.4,91.4c2.1,1.7,4.3,2.6,6.6,2.6
			c2.5,0,4.7-0.9,6.6-2.6l91.1-91.1c1.9-2.3,2.9-4.6,2.9-6.8c0-2.7-0.9-4.9-2.6-6.6C220.1,402.8,217.9,402,215.2,402z"/>
		<path class="st0" d="M531.3,109.6h54.8v392.9c0,2.7,0.9,4.9,2.6,6.6c1.7,1.7,3.9,2.6,6.6,2.6h54.8c2.7,0,4.9-0.9,6.6-2.6
			c1.7-1.7,2.6-3.9,2.6-6.6V109.6H714c4.2,0,7-1.9,8.6-5.7c1.5-3.6,0.9-7-2-10L629.2,2.6c-2.1-1.7-4.3-2.6-6.6-2.6
			c-2.5,0-4.7,0.9-6.6,2.6L525,93.6c-1.9,2.3-2.9,4.6-2.9,6.8c0,2.7,0.9,4.9,2.6,6.6C526.4,108.8,528.6,109.6,531.3,109.6z"/>
		<path class="st0" d="M427.5,479.1h-70.8c-4,0-6.9,0.2-8.6,0.6l-4,0.6v-0.6l3.1-3.1c2.8-3.4,4.9-5.9,6-7.4l105.3-151.3v-25.4H296.7
			v65.4H331v-32.8h66.2c3.4,0,6.3-0.3,8.6-0.9c0.6,0,1.3,0,2.1-0.1c0.9-0.1,1.5-0.1,1.9-0.1v0.9l-3.1,2.6c-1.7,1.7-3.7,4.3-6,7.7
			l-105.3,151v25.7H462v-66.5h-34.5L427.5,479.1L427.5,479.1z"/>
		<path class="st0" d="M467.5,189L401.8,0h-46.3l-65.7,189h-20v30.3h81.9V189h-21.4l13.4-41.1h69.4l13.4,41.1h-21.4v30.3h82.2V189
			H467.5z M353.3,116.5l20.8-62.2c0.8-2.3,1.5-5,2.1-8.3c0.7-3.2,1-4.9,1-5.1l0.9-5.7h1.1c0,0.8,0.2,2.7,0.6,5.7l3.4,13.4l20.6,62.2
			L353.3,116.5L353.3,116.5z"/>
	</g>
</g>
</svg>
